<mxfile host="app.diagrams.net" modified="2022-03-31T08:59:30.324Z" agent="5.0 (Windows NT 10.0; Win64; x64) AppleWebKit/537.36 (KHTML, like Gecko) Chrome/99.0.4844.74 Safari/537.36 Edg/99.0.1150.55" etag="Jz5DLWtk9XCWteoOGEHQ" version="17.2.1" type="github">
  <diagram id="5GebALZiEzIIUnb0mV15" name="Page-1">
    <mxGraphModel dx="1860" dy="1069" grid="0" gridSize="10" guides="1" tooltips="1" connect="1" arrows="1" fold="1" page="0" pageScale="1" pageWidth="850" pageHeight="1100" math="0" shadow="0">
      <root>
        <mxCell id="0" />
        <mxCell id="1" parent="0" />
        <mxCell id="NT8HM3NIQ-Kxb6l5K6O9-1" value="P0" style="ellipse;whiteSpace=wrap;html=1;aspect=fixed;hachureGap=4;" parent="1" vertex="1">
          <mxGeometry x="-69" y="4" width="80" height="80" as="geometry" />
        </mxCell>
        <mxCell id="NT8HM3NIQ-Kxb6l5K6O9-2" value="P1" style="ellipse;whiteSpace=wrap;html=1;aspect=fixed;hachureGap=4;" parent="1" vertex="1">
          <mxGeometry x="75" y="4" width="80" height="80" as="geometry" />
        </mxCell>
        <mxCell id="NT8HM3NIQ-Kxb6l5K6O9-3" value="P2" style="ellipse;whiteSpace=wrap;html=1;aspect=fixed;hachureGap=4;" parent="1" vertex="1">
          <mxGeometry x="228" y="4" width="80" height="80" as="geometry" />
        </mxCell>
        <mxCell id="NT8HM3NIQ-Kxb6l5K6O9-5" value="" style="endArrow=classic;html=1;rounded=0;startSize=14;endSize=14;sourcePerimeterSpacing=8;targetPerimeterSpacing=8;curved=1;exitX=1;exitY=0.5;exitDx=0;exitDy=0;entryX=0;entryY=0.5;entryDx=0;entryDy=0;" parent="1" source="NT8HM3NIQ-Kxb6l5K6O9-1" target="NT8HM3NIQ-Kxb6l5K6O9-2" edge="1">
          <mxGeometry width="50" height="50" relative="1" as="geometry">
            <mxPoint x="104" y="90" as="sourcePoint" />
            <mxPoint x="154" y="40" as="targetPoint" />
          </mxGeometry>
        </mxCell>
        <mxCell id="NT8HM3NIQ-Kxb6l5K6O9-6" value="" style="endArrow=classic;html=1;rounded=0;startSize=14;endSize=14;sourcePerimeterSpacing=8;targetPerimeterSpacing=8;curved=1;entryX=0;entryY=0.5;entryDx=0;entryDy=0;exitX=1;exitY=0.5;exitDx=0;exitDy=0;" parent="1" source="NT8HM3NIQ-Kxb6l5K6O9-2" target="NT8HM3NIQ-Kxb6l5K6O9-3" edge="1">
          <mxGeometry width="50" height="50" relative="1" as="geometry">
            <mxPoint x="104" y="90" as="sourcePoint" />
            <mxPoint x="154" y="40" as="targetPoint" />
          </mxGeometry>
        </mxCell>
        <mxCell id="NT8HM3NIQ-Kxb6l5K6O9-7" value="FC=0" style="text;html=1;align=center;verticalAlign=middle;resizable=0;points=[];autosize=1;strokeColor=none;fillColor=none;hachureGap=4;" parent="1" vertex="1">
          <mxGeometry x="168" y="19" width="40" height="18" as="geometry" />
        </mxCell>
        <mxCell id="NT8HM3NIQ-Kxb6l5K6O9-8" value="" style="edgeStyle=segmentEdgeStyle;endArrow=classic;html=1;rounded=0;startSize=14;endSize=14;sourcePerimeterSpacing=8;targetPerimeterSpacing=8;curved=1;exitX=0.5;exitY=1;exitDx=0;exitDy=0;" parent="1" source="NT8HM3NIQ-Kxb6l5K6O9-2" edge="1">
          <mxGeometry width="50" height="50" relative="1" as="geometry">
            <mxPoint x="118" y="103" as="sourcePoint" />
            <mxPoint x="152" y="189" as="targetPoint" />
            <Array as="points">
              <mxPoint x="99" y="84" />
              <mxPoint x="99" y="189" />
            </Array>
          </mxGeometry>
        </mxCell>
        <mxCell id="NT8HM3NIQ-Kxb6l5K6O9-9" value="FC=1" style="text;html=1;align=center;verticalAlign=middle;resizable=0;points=[];autosize=1;strokeColor=none;fillColor=none;hachureGap=4;" parent="1" vertex="1">
          <mxGeometry x="102" y="124" width="40" height="18" as="geometry" />
        </mxCell>
        <mxCell id="NT8HM3NIQ-Kxb6l5K6O9-10" value="SKO" style="text;html=1;align=center;verticalAlign=middle;resizable=0;points=[];autosize=1;strokeColor=none;fillColor=none;hachureGap=4;" parent="1" vertex="1">
          <mxGeometry x="155" y="182" width="35" height="18" as="geometry" />
        </mxCell>
        <mxCell id="NT8HM3NIQ-Kxb6l5K6O9-12" value="" style="edgeStyle=segmentEdgeStyle;endArrow=classic;html=1;rounded=0;startSize=14;endSize=14;sourcePerimeterSpacing=8;targetPerimeterSpacing=8;curved=1;" parent="1" edge="1">
          <mxGeometry width="50" height="50" relative="1" as="geometry">
            <mxPoint x="310" y="43" as="sourcePoint" />
            <mxPoint x="269" y="4" as="targetPoint" />
            <Array as="points">
              <mxPoint x="356" y="43" />
              <mxPoint x="356" y="-44" />
              <mxPoint x="269" y="-44" />
            </Array>
          </mxGeometry>
        </mxCell>
        <mxCell id="NT8HM3NIQ-Kxb6l5K6O9-13" value="FC=0" style="text;html=1;align=center;verticalAlign=middle;resizable=0;points=[];autosize=1;strokeColor=none;fillColor=none;hachureGap=4;" parent="1" vertex="1">
          <mxGeometry x="300" y="-22" width="40" height="18" as="geometry" />
        </mxCell>
        <mxCell id="NT8HM3NIQ-Kxb6l5K6O9-15" value="FC=1" style="text;html=1;align=center;verticalAlign=middle;resizable=0;points=[];autosize=1;strokeColor=none;fillColor=none;hachureGap=4;" parent="1" vertex="1">
          <mxGeometry x="263" y="127" width="40" height="18" as="geometry" />
        </mxCell>
        <mxCell id="NT8HM3NIQ-Kxb6l5K6O9-16" value="SKO" style="text;html=1;align=center;verticalAlign=middle;resizable=0;points=[];autosize=1;strokeColor=none;fillColor=none;hachureGap=4;" parent="1" vertex="1">
          <mxGeometry x="315" y="184" width="35" height="18" as="geometry" />
        </mxCell>
        <mxCell id="NT8HM3NIQ-Kxb6l5K6O9-18" value="" style="endArrow=classic;html=1;rounded=0;startSize=14;endSize=14;sourcePerimeterSpacing=8;targetPerimeterSpacing=8;curved=1;entryX=0;entryY=0.5;entryDx=0;entryDy=0;" parent="1" target="NT8HM3NIQ-Kxb6l5K6O9-1" edge="1">
          <mxGeometry width="50" height="50" relative="1" as="geometry">
            <mxPoint x="-142" y="67" as="sourcePoint" />
            <mxPoint x="225" y="40" as="targetPoint" />
          </mxGeometry>
        </mxCell>
        <mxCell id="NT8HM3NIQ-Kxb6l5K6O9-19" value="SNO" style="text;html=1;align=center;verticalAlign=middle;resizable=0;points=[];autosize=1;strokeColor=none;fillColor=none;hachureGap=4;" parent="1" vertex="1">
          <mxGeometry x="-161" y="37" width="36" height="18" as="geometry" />
        </mxCell>
        <mxCell id="Q5LYDV_wfVabdb-_EPOr-2" value="" style="edgeStyle=segmentEdgeStyle;endArrow=classic;html=1;rounded=0;startSize=14;endSize=14;sourcePerimeterSpacing=8;targetPerimeterSpacing=8;curved=1;exitX=0.5;exitY=1;exitDx=0;exitDy=0;" edge="1" parent="1">
          <mxGeometry width="50" height="50" relative="1" as="geometry">
            <mxPoint x="273" y="84" as="sourcePoint" />
            <mxPoint x="310" y="189" as="targetPoint" />
            <Array as="points">
              <mxPoint x="257" y="84" />
              <mxPoint x="257" y="189" />
            </Array>
          </mxGeometry>
        </mxCell>
      </root>
    </mxGraphModel>
  </diagram>
</mxfile>
